<?xml version="1.0" encoding="UTF-8"?>
<!DOCTYPE svg PUBLIC "-//W3C//DTD SVG 1.1//EN" "http://www.w3.org/Graphics/SVG/1.1/DTD/svg11.dtd">
<svg xmlns="http://www.w3.org/2000/svg" version="1.1" width="48px" height="48px" style="shape-rendering:geometricPrecision; text-rendering:geometricPrecision; image-rendering:optimizeQuality; fill-rule:evenodd; clip-rule:evenodd" xmlns:xlink="http://www.w3.org/1999/xlink">
<g><path style="opacity:0.816" fill="#0d0c0b" d="M 19.5,-0.5 C 22.1667,-0.5 24.8333,-0.5 27.5,-0.5C 28.8361,1.01027 30.0027,2.67694 31,4.5C 31.2599,8.24977 31.9266,11.9164 33,15.5C 38.3468,20.4952 40.5134,26.4952 39.5,33.5C 38.089,35.539 36.089,36.539 33.5,36.5C 33.7678,34.901 33.4345,33.5676 32.5,32.5C 32.5911,26.0144 30.9244,20.0144 27.5,14.5C 27.5,13.5 27.5,12.5 27.5,11.5C 27.9899,9.05165 27.1566,7.38498 25,6.5C 23.3468,6.81978 22.3468,7.81978 22,9.5C 18.3165,5.68172 17.1498,6.34838 18.5,11.5C 18.5,12.5 18.5,13.5 18.5,14.5C 15.8975,20.3075 13.8975,26.3075 12.5,32.5C 11.1667,32.5 9.83333,32.5 8.5,32.5C 9.56139,26.4778 12.0614,21.1445 16,16.5C 16.3333,11.8333 16.6667,7.16667 17,2.5C 18.045,1.62656 18.8783,0.626561 19.5,-0.5 Z"/></g>
<g><path style="opacity:1" fill="#8d887c" d="M 27.5,11.5 C 27.1667,11.5 26.8333,11.5 26.5,11.5C 25.5084,11.6716 24.8417,11.3382 24.5,10.5C 23.1667,10.5 21.8333,10.5 20.5,10.5C 19.8333,10.8333 19.1667,11.1667 18.5,11.5C 17.1498,6.34838 18.3165,5.68172 22,9.5C 22.3468,7.81978 23.3468,6.81978 25,6.5C 27.1566,7.38498 27.9899,9.05165 27.5,11.5 Z"/></g>
<g><path style="opacity:1" fill="#121212" d="M 24.5,10.5 C 24.6395,8.66298 25.3061,8.32964 26.5,9.5C 26.0431,10.2975 25.3764,10.6309 24.5,10.5 Z"/></g>
<g><path style="opacity:1" fill="#f8cc10" d="M 20.5,10.5 C 21.8333,10.5 23.1667,10.5 24.5,10.5C 24.8417,11.3382 25.5084,11.6716 26.5,11.5C 25.3126,13.9754 23.3126,14.9754 20.5,14.5C 20.5,13.1667 20.5,11.8333 20.5,10.5 Z"/></g>
<g><path style="opacity:1" fill="#da9607" d="M 20.5,10.5 C 20.5,11.8333 20.5,13.1667 20.5,14.5C 23.3126,14.9754 25.3126,13.9754 26.5,11.5C 26.8333,11.5 27.1667,11.5 27.5,11.5C 27.5,12.5 27.5,13.5 27.5,14.5C 25.8439,15.1465 24.1772,15.8131 22.5,16.5C 20.9271,16.2483 19.5938,15.5817 18.5,14.5C 18.5,13.5 18.5,12.5 18.5,11.5C 19.1667,11.1667 19.8333,10.8333 20.5,10.5 Z"/></g>
<g><path style="opacity:1" fill="#f3f3f0" d="M 18.5,14.5 C 19.5938,15.5817 20.9271,16.2483 22.5,16.5C 24.1772,15.8131 25.8439,15.1465 27.5,14.5C 30.9244,20.0144 32.5911,26.0144 32.5,32.5C 31.5084,32.3284 30.8417,32.6618 30.5,33.5C 30.5,35.1667 30.5,36.8333 30.5,38.5C 29.5,38.8333 28.8333,39.5 28.5,40.5C 25.418,42.181 22.0847,42.8476 18.5,42.5C 17.8333,41.5 17.1667,40.5 16.5,39.5C 18.0281,39.4827 18.5281,38.816 18,37.5C 16.549,35.5359 14.7157,34.2026 12.5,33.5C 12.5,33.1667 12.5,32.8333 12.5,32.5C 13.8975,26.3075 15.8975,20.3075 18.5,14.5 Z"/></g>
<g><path style="opacity:1" fill="#f0ad01" d="M 8.5,32.5 C 9.83333,32.5 11.1667,32.5 12.5,32.5C 12.5,32.8333 12.5,33.1667 12.5,33.5C 13.8465,35.5368 15.1798,37.5368 16.5,39.5C 17.1667,40.5 17.8333,41.5 18.5,42.5C 18.5,43.5 18.5,44.5 18.5,45.5C 16.6208,46.3414 14.6208,46.6747 12.5,46.5C 10.1617,44.9605 7.49508,44.2938 4.5,44.5C 3.62356,44.6309 2.95689,44.2975 2.5,43.5C 3.2305,40.8908 3.7305,38.2241 4,35.5C 5.87781,34.9473 7.37781,33.9473 8.5,32.5 Z"/></g>
<g><path style="opacity:0.981" fill="#f5b601" d="M 30.5,33.5 C 30.8417,32.6618 31.5084,32.3284 32.5,32.5C 33.4345,33.5676 33.7678,34.901 33.5,36.5C 36.089,36.539 38.089,35.539 39.5,33.5C 40.3771,35.7278 41.7104,37.7278 43.5,39.5C 40.0688,42.3166 36.0688,43.9833 31.5,44.5C 31.815,40.6286 31.4816,36.9619 30.5,33.5 Z"/></g>
<g><path style="opacity:1" fill="#1b1610" d="M 12.5,33.5 C 14.7157,34.2026 16.549,35.5359 18,37.5C 18.5281,38.816 18.0281,39.4827 16.5,39.5C 15.1798,37.5368 13.8465,35.5368 12.5,33.5 Z"/></g>
<g><path style="opacity:0.779" fill="#0f0f0e" d="M 28.5,40.5 C 29.4614,42.2646 29.7947,44.2646 29.5,46.5C 25.9359,45.5773 22.2693,45.244 18.5,45.5C 18.5,44.5 18.5,43.5 18.5,42.5C 22.0847,42.8476 25.418,42.181 28.5,40.5 Z"/></g>
<g><path style="opacity:1" fill="#bd7600" d="M 30.5,33.5 C 31.4816,36.9619 31.815,40.6286 31.5,44.5C 36.0688,43.9833 40.0688,42.3166 43.5,39.5C 44.525,39.8966 44.6917,40.5632 44,41.5C 41.7218,42.719 39.5551,44.0523 37.5,45.5C 31.0762,47.6961 28.7428,45.3627 30.5,38.5C 30.5,36.8333 30.5,35.1667 30.5,33.5 Z"/></g>
<g><path style="opacity:0.282" fill="#835100" d="M 4.5,44.5 C 7.49508,44.2938 10.1617,44.9605 12.5,46.5C 9.57184,46.4349 6.90517,45.7682 4.5,44.5 Z"/></g>
<g><path style="opacity:0.635" fill="#4d2b02" d="M 18.5,45.5 C 18.5,46.1667 18.5,46.8333 18.5,47.5C 16.5,47.5 14.5,47.5 12.5,47.5C 12.5,47.1667 12.5,46.8333 12.5,46.5C 14.6208,46.6747 16.6208,46.3414 18.5,45.5 Z"/></g>
<g><path style="opacity:0.657" fill="#3e2403" d="M 30.5,38.5 C 28.7428,45.3627 31.0762,47.6961 37.5,45.5C 37.1667,46.1667 36.8333,46.8333 36.5,47.5C 34.1667,47.5 31.8333,47.5 29.5,47.5C 29.5,47.1667 29.5,46.8333 29.5,46.5C 29.7947,44.2646 29.4614,42.2646 28.5,40.5C 28.8333,39.5 29.5,38.8333 30.5,38.5 Z"/></g>
</svg>
